# xmcd CD database file
#
# Track frame offsets:
#	150
#	14140
#	31692
#	48452
#	64460
#	81578
#	97715
#	112052
#	126407
#	141635
#	159145
#	175007
#	187577
#	201030
#	217238
#	234473
#	248465
#	266100
#	283435
#	296322
#	312458
#
# Disc length: 4404 seconds
#
# Revision: 0
# Processed by: cddbd v1.5.2PL0 Copyright (c) Steve Scherf et al.
# Submitted via: CDex 1.70beta2
#
DISCID=3e113215
DTITLE=ChartBreakers - ChartBreakers CGC-516
DYEAR=1900
DGENRE=Country
TTITLE0=Alabama - Tennessee River
TTITLE1=Mark Chesnutt - Ol' Country
TTITLE2=Joe Diffie - Ships That Don't Come In
TTITLE3=Holly Dunn - Only When I Love
TTITLE4=Ronnie Milsap - Smoky Mountain Rain
TTITLE5=Lorrie Morgan - Five Minutes
TTITLE6=Reba McEntire - Little Rock
TTITLE7=Paul Overstreet - Richest Man On Earth
TTITLE8=Restless Heart - That Rock Won't Roll
TTITLE9=Dan Seals - Love On Arrival
TTITLE10=Linda Davis - In A Different Light
TTITLE11=George Strait - If I Know Me
TTITLE12=Marty Stuart - Burn Me Down
TTITLE13=Randy Travis - Forever And Ever, Amen
TTITLE14=Travis Tritt - Anymore
TTITLE15=Tanya Tucker - If Your Heart Ain't Busy Tonight
TTITLE16=Wynonna - No One Else On Earth
TTITLE17=Trisha Yearwood - She's In Love With The Boy
TTITLE18=Dwight Yoakam - Honky Tonk Man
TTITLE19=Garth Brooks - Dance
TTITLE20=Garth Brooks - River
EXTD=YEAR: 1900
EXTT0=
EXTT1=
EXTT2=
EXTT3=
EXTT4=
EXTT5=
EXTT6=
EXTT7=
EXTT8=
EXTT9=
EXTT10=
EXTT11=
EXTT12=
EXTT13=
EXTT14=
EXTT15=
EXTT16=
EXTT17=
EXTT18=
EXTT19=
EXTT20=
PLAYORDER=
